<svg xmlns="http://www.w3.org/2000/svg" width="13" height="12.031" viewBox="0 0 13 12.031">
  <defs>
    <style>
      .cls-1 {
        fill: #0279f3;
        fill-rule: evenodd;
      }
    </style>
  </defs>
  <path i data-name="Фигура 1" class="cls-1" d="M407.48,565.475l-6.283,8.141-4.472-4.793a0.282,0.282,0,0,0-.311-0.09,0.75,0.75,0,0,0-.414.7v0.01a0.6,0.6,0,0,0,.089.333l4.653,6.971a0.55,0.55,0,0,0,.456.259,0.574,0.574,0,0,0,.469-0.267l7.134-10.527a0.768,0.768,0,0,0-.111-1.15A1.035,1.035,0,0,0,407.48,565.475Z" transform="translate(-396 -564.969)"/>
</svg>
